<?xml version="1.0" encoding="UTF-8"?>
<svg width="17px" height="25px" viewBox="0 0 17 25" version="1.1" xmlns="http://www.w3.org/2000/svg" xmlns:xlink="http://www.w3.org/1999/xlink">
    <!-- Generator: Sketch 60 (88103) - https://sketch.com -->
    <title>形状结合</title>
    <desc>Created with Sketch.</desc>
    <defs>
        <linearGradient x1="50%" y1="0%" x2="50%" y2="98.7410262%" id="linearGradient-1">
            <stop stop-color="#6DDF61" offset="0%"></stop>
            <stop stop-color="#1183F6" offset="100%"></stop>
        </linearGradient>
    </defs>
    <g id="控制策略" stroke="none" stroke-width="1" fill="none" fill-rule="evenodd">
        <g id="智慧照明-单灯控制策略" transform="translate(-1851.000000, -760.000000)" fill="url(#linearGradient-1)" fill-rule="nonzero">
            <g id="balance" transform="translate(1156.000000, 299.000000)">
                <g id="bg">
                    <g id="编组-12" transform="translate(527.000000, 451.000000)">
                        <g id="编组-10">
                            <g id="编组-11" transform="translate(165.000000, 11.000000)">
                                <path d="M11.6441604,-0.428571429 C16.0616149,-0.428571429 19.6441604,3.26442857 19.6441604,7.82142857 C19.6441604,10.8214286 16.9648876,14.0599286 15.9852513,16.8799286 C14.5277967,21.0709286 14.7350694,23.5714286 11.6441604,23.5714286 C8.59834217,23.5714286 8.75979672,21.0589286 7.30306945,16.8626786 C6.32634217,14.0486786 3.64416035,10.8446786 3.64416035,7.82142857 C3.64416035,3.26442857 7.22525126,-0.428571429 11.6441604,-0.428571429 Z M13.2739785,20.7356786 L10.1917967,21.1339286 C10.568524,21.9836786 10.9074331,22.0714286 11.6441604,22.0714286 C12.5023422,22.0714286 12.8274331,21.9761786 13.2739785,20.7356786 L13.2739785,20.7356786 Z M13.9823422,18.3949286 L9.48197854,18.9746786 L9.48852399,18.9979286 C9.62301632,19.4745242 9.76802366,19.9478971 9.92343308,20.4176786 L9.92343308,20.4176786 L13.5292513,19.9534286 C13.6099785,19.6864286 13.6950694,19.3939286 13.7903422,19.0571786 C13.8499785,18.8486786 13.9183422,18.6161786 13.9823422,18.3949286 L13.9823422,18.3949286 Z M14.4710694,16.8214286 L8.82306945,16.8214286 C8.97987757,17.2958266 9.12898929,17.7728932 9.27034217,18.2524286 L9.27034217,18.2524286 L14.2150694,17.6156786 C14.2921604,17.3606786 14.3816149,17.0906786 14.4710694,16.8214286 L14.4710694,16.8214286 Z M12.259545,3.57142857 C9.71416035,3.57142857 7.64416035,5.64142857 7.64416035,8.18681319 C7.64416035,8.3992304 7.81635853,8.57142857 8.02877574,8.57142857 C8.24119295,8.57142857 8.41339112,8.3992304 8.41339112,8.18681319 C8.41339112,6.06604396 10.1387757,4.34065934 12.259545,4.34065934 C12.4719622,4.34065934 12.6441604,4.16846117 12.6441604,3.95604396 C12.6441604,3.74362674 12.4719622,3.57142857 12.259545,3.57142857 Z" id="形状结合"></path>
                            </g>
                        </g>
                    </g>
                </g>
            </g>
        </g>
    </g>
</svg>